<?xml version="1.0" standalone="no"?>
<!DOCTYPE svg PUBLIC "-//W3C//DTD SVG 20010904//EN"
 "http://www.w3.org/TR/2001/REC-SVG-20010904/DTD/svg10.dtd">
<svg version="1.0" xmlns="http://www.w3.org/2000/svg"
 width="500.000000pt" height="500.000000pt" viewBox="0 0 500.000000 500.000000"
 preserveAspectRatio="xMidYMid meet">
<metadata>
Created by potrace 1.16, written by Peter Selinger 2001-2019
</metadata>
<g transform="translate(0.000000,500.000000) scale(0.100000,-0.100000)"
fill="#000000" stroke="none">
<path d="M2483 4348 c-34 -39 -63 -85 -63 -102 0 -12 10 -16 35 -16 l35 0 0
-1280 c0 -1017 -3 -1280 -12 -1281 -7 0 -53 0 -103 0 -95 2 -122 -6 -112 -34
6 -14 24 -16 139 -14 73 1 138 0 143 -1 6 -1 45 -2 88 -1 61 1 79 4 84 17 10
25 -16 34 -104 34 -46 0 -83 4 -83 9 0 5 4 21 10 35 6 16 6 27 0 31 -9 5 -14
1385 -6 1385 2 0 22 -26 44 -58 66 -94 63 -94 123 -12 28 39 54 69 56 66 3 -3
4 -64 4 -135 -2 -126 -1 -131 19 -131 19 0 20 5 20 170 0 161 -1 170 -19 170
-13 0 -39 -27 -75 -75 -30 -42 -58 -76 -61 -76 -9 0 -95 119 -105 147 -6 14
-9 239 -7 526 l2 503 35 5 c24 4 35 10 34 21 -2 21 -75 119 -89 119 -7 0 -21
-10 -32 -22z"/>
<path d="M1359 1466 c-11 -29 -106 -255 -185 -438 -32 -77 -32 -78 -10 -78 18
0 28 14 55 80 l32 80 132 0 132 0 35 -80 35 -80 43 0 42 0 -19 38 c-10 20 -29
60 -41 87 -12 28 -42 93 -67 145 -24 52 -63 134 -85 182 -31 67 -45 87 -63 91
-19 3 -26 -2 -36 -27z m127 -313 c-2 -2 -51 -2 -108 -1 l-105 3 51 122 51 123
58 -122 c31 -66 56 -123 53 -125z"/>
<path d="M2395 1335 c-60 -21 -110 -81 -125 -147 -11 -47 -10 -62 4 -106 10
-28 26 -62 37 -76 46 -58 164 -84 241 -51 97 40 145 170 99 271 -46 101 -152
146 -256 109z m144 -51 c70 -59 67 -241 -4 -288 -28 -19 -93 -21 -129 -5 -14
7 -33 28 -42 48 -24 48 -24 164 -1 208 34 65 121 83 176 37z"/>
<path d="M2870 1339 c-13 -5 -32 -17 -41 -25 -15 -13 -17 -13 -22 6 -4 15 -13
20 -41 20 l-36 0 0 -195 0 -195 40 0 40 0 0 146 0 146 29 29 c38 38 91 40 126
4 24 -23 25 -28 25 -175 l0 -150 35 0 35 0 0 155 c0 162 -5 188 -46 218 -29
22 -110 31 -144 16z"/>
<path d="M3253 1339 c-45 -13 -100 -71 -112 -116 -30 -106 8 -219 88 -260 64
-33 143 -31 211 5 56 29 64 39 40 55 -12 7 -26 2 -54 -17 -30 -20 -51 -26 -90
-26 -28 0 -58 6 -66 13 -33 26 -60 71 -60 98 l0 29 146 0 147 0 -5 48 c-10
103 -70 169 -164 177 -27 2 -64 0 -81 -6z m123 -47 c27 -21 39 -46 48 -94 l7
-38 -111 0 c-110 0 -110 0 -110 24 0 34 18 77 42 104 27 27 93 30 124 4z"/>
<path d="M3623 1339 c-46 -14 -73 -53 -73 -106 0 -37 5 -50 29 -72 16 -15 49
-33 73 -40 23 -7 60 -22 81 -32 32 -17 37 -24 37 -54 0 -25 -6 -37 -21 -46
-51 -27 -136 -1 -158 48 -13 29 -61 33 -61 4 0 -27 39 -71 76 -87 43 -18 125
-18 169 0 59 25 82 99 48 157 -17 28 -78 60 -140 74 -31 6 -83 46 -83 63 0 5
9 21 21 36 31 39 90 37 132 -6 30 -30 67 -45 67 -27 0 22 -25 58 -50 72 -36
22 -105 29 -147 16z"/>
<path d="M1670 1337 c0 -2 36 -89 79 -193 75 -178 82 -189 108 -192 27 -3 29
1 103 184 41 103 77 191 79 196 2 5 -7 8 -20 6 -19 -2 -32 -25 -82 -150 -33
-82 -62 -146 -66 -144 -4 3 -34 70 -66 150 l-60 146 -37 0 c-21 0 -38 -1 -38
-3z"/>
<path d="M2100 1146 l0 -196 40 0 40 0 -2 193 -3 192 -37 3 -38 3 0 -195z"/>
</g>
</svg>
